<svg width="20" height="20" viewBox="0 0 20 20" stroke="#98A2B3" fill="none" xmlns="http://www.w3.org/2000/svg">
<path d="M19 18.9983V13.3743M19 13.3743H13.375M19 13.3743C18.0577 15.0068 15.4227 17.427 13.7045 18.2026C11.9864 18.9783 10.068 19.195 8.22004 18.8222C6.3721 18.4494 4.68787 17.5059 3.40496 16.1248C2.12206 14.7438 1.30524 12.9948 1.06975 11.1248M1 1.00174V6.62565M1 6.62565H6.625M1 6.62565C1.94235 4.9932 4.57731 2.573 6.29547 1.79735C8.01363 1.02171 9.93201 0.804995 11.78 1.17779C13.6279 1.55059 15.3121 2.49408 16.595 3.87515C17.8779 5.25622 18.6948 7.00516 18.9302 8.87522"  stroke-width="2" stroke-linecap="round" stroke-linejoin="round"/>
</svg>
